<svg xmlns="http://www.w3.org/2000/svg" width="960" height="480" viewBox="0 0 960 480">
<rect width="960" height="480" fill="#fff"/>
<text x="36" y="36" font-size="22" font-family="sans-serif">Arena reclaim: physical memory by phase</text>
<text x="36" y="58" font-size="12" font-family="sans-serif">Linux-6.17.0-1022-azure-x86_64-with-glibc2.39 · 10521b6cf6a3 · median of 3 paired runs</text>
<text x="20" y="80" font-size="12" font-family="sans-serif">278 MiB RSS</text>
<text x="20" y="390" font-size="12" font-family="sans-serif">0 MiB RSS</text>
<polyline points="105,383.6 205,80.1 305,80.1 405,365.7 505,365.7 605,80.3 705,80.3 805,365.7 905,365.7" fill="none" stroke="#9a4a00" stroke-width="3"/>
<polyline points="105,383.5 205,80.0 305,80.0 405,365.7 505,383.5 605,80.2 705,80.2 805,365.6 905,383.4" fill="none" stroke="#075aa6" stroke-width="3"/>
<text x="105" y="418" text-anchor="middle" font-size="11" font-family="sans-serif">baseline</text>
<text x="205" y="418" text-anchor="middle" font-size="11" font-family="sans-serif">peak</text>
<text x="305" y="418" text-anchor="middle" font-size="11" font-family="sans-serif">free</text>
<text x="405" y="418" text-anchor="middle" font-size="11" font-family="sans-serif">purge</text>
<text x="505" y="418" text-anchor="middle" font-size="11" font-family="sans-serif">reclaim</text>
<text x="605" y="418" text-anchor="middle" font-size="11" font-family="sans-serif">regrowth</text>
<text x="705" y="418" text-anchor="middle" font-size="11" font-family="sans-serif">free</text>
<text x="805" y="418" text-anchor="middle" font-size="11" font-family="sans-serif">purge</text>
<text x="905" y="418" text-anchor="middle" font-size="11" font-family="sans-serif">reclaim</text>
<text x="90" y="83" fill="#9a4a00" font-size="13" font-family="sans-serif">purge only</text><text x="200" y="83" fill="#075aa6" font-size="13" font-family="sans-serif">explicit reclaim</text>
<text x="36" y="440" font-size="12" font-family="sans-serif">RSS is physical; allocator-reserved virtual address space is NOT RSS.</text>
<text x="36" y="455" font-size="11" font-family="sans-serif">Nonempty no-eligible: 3/3; active-worker pending: 3/3.</text>
</svg>
